<?xml version="1.0" standalone="no"?><!DOCTYPE svg PUBLIC "-//W3C//DTD SVG 1.1//EN" "http://www.w3.org/Graphics/SVG/1.1/DTD/svg11.dtd"><svg t="1634626152991" class="icon" viewBox="0 0 1024 1024" version="1.1" xmlns="http://www.w3.org/2000/svg" p-id="1859" xmlns:xlink="http://www.w3.org/1999/xlink" width="64" height="64"><defs><style type="text/css"></style></defs><path d="M808.55 850.35c-5.87 0-11.74-2.23-16.22-6.7-9-8.96-9.04-23.52-0.08-32.53 79.73-80.11 123.64-186.47 123.64-299.49 0-113.06-43.94-219.44-123.71-299.56-8.96-9-8.93-23.56 0.07-32.53 9-8.96 23.56-8.93 32.53 0.07 43 43.18 76.75 93.42 100.32 149.32 24.41 57.89 36.79 119.36 36.79 182.7 0 63.32-12.37 124.77-36.77 182.65-23.56 55.89-57.3 106.12-100.27 149.3a22.942 22.942 0 0 1-16.3 6.77zM214.21 850.45c-5.9 0-11.8-2.26-16.3-6.77-43-43.18-76.76-93.42-100.34-149.33-24.42-57.9-36.8-119.37-36.8-182.72 0-63.36 12.39-124.85 36.82-182.77 23.59-55.92 57.37-106.17 100.4-149.36 8.97-9 23.53-9.02 32.53-0.06 9 8.97 9.02 23.53 0.06 32.53-79.84 80.13-123.81 186.55-123.81 299.66 0 113.07 43.94 219.47 123.74 299.59 8.96 9 8.93 23.56-0.07 32.53a22.953 22.953 0 0 1-16.23 6.7z" fill="#ffffff" p-id="1860" data-spm-anchor-id="a313x.7781069.0.i1" class="selected"></path><path d="M511.33 457.63c29.78 0 54 24.22 54 54s-24.22 54-54 54-54-24.22-54-54c0-29.77 24.23-54 54-54m0-46c-55.23 0-100 44.77-100 100s44.77 100 100 100 100-44.77 100-100-44.77-100-100-100z" fill="#ffffff" p-id="1861" data-spm-anchor-id="a313x.7781069.0.i2" class="selected"></path><path d="M718.15 759.95c-5.86 0-11.72-2.23-16.21-6.68-9.01-8.95-9.06-23.52-0.11-32.53 55.6-55.97 86.22-130.23 86.22-209.11 0-78.91-30.64-153.2-86.29-209.18-8.96-9.01-8.91-23.57 0.1-32.53s23.57-8.91 32.53 0.1c64.27 64.65 99.66 150.46 99.66 241.61 0 91.11-35.37 176.88-99.58 241.53a22.967 22.967 0 0 1-16.32 6.79zM304.61 760.05c-5.91 0-11.82-2.26-16.31-6.78-64.29-64.66-99.69-150.47-99.69-241.63 0-91.21 35.43-177.05 99.77-241.71 8.96-9 23.52-9.04 32.53-0.08s9.04 23.52 0.08 32.53c-55.7 55.99-86.38 130.31-86.38 209.27 0 78.93 30.65 153.22 86.31 209.2 8.96 9.01 8.91 23.57-0.09 32.53a23 23 0 0 1-16.22 6.67z" fill="#ffffff" p-id="1862" data-spm-anchor-id="a313x.7781069.0.i0" class="selected"></path></svg>