<?xml version="1.0" standalone="no"?><!DOCTYPE svg PUBLIC "-//W3C//DTD SVG 1.1//EN" "http://www.w3.org/Graphics/SVG/1.1/DTD/svg11.dtd"><svg t="1634722435826" class="icon" viewBox="0 0 1024 1024" version="1.1" xmlns="http://www.w3.org/2000/svg" p-id="1950" xmlns:xlink="http://www.w3.org/1999/xlink" width="64" height="64"><defs><style type="text/css"></style></defs><path d="M527.914667 600.448c23.722667 0 42.666667-19.029333 42.666666-42.453333v-341.76c0-23.04-19.114667-42.453333-42.666666-42.453334-23.722667 0-42.666667 19.029333-42.666667 42.453334v341.717333c0 23.04 19.114667 42.496 42.666667 42.496z" p-id="1951" fill="#ffffff"></path><path d="M759.381333 276.650667a42.581333 42.581333 0 0 0-77.824 24.149333 42.666667 42.666667 0 0 0 18.645334 35.285333 257.536 257.536 0 1 1-370.517334-6.101333l0.341334-0.256a42.666667 42.666667 0 1 0-46.762667-71.253333 321.28 321.28 0 0 0-11.733333 11.093333h-0.725334l-1.706666 2.432A340.48 340.48 0 0 0 170.666667 511.872C170.666667 700.458667 323.498667 853.333333 512 853.333333s341.333333-152.874667 341.333333-341.461333a340.138667 340.138667 0 0 0-93.952-235.221333z" p-id="1952" fill="#ffffff"></path></svg>